<?xml version="1.0" encoding="UTF-8"?>
<svg id="Vrstva_1" xmlns="http://www.w3.org/2000/svg" viewBox="0 0 243.4688 137.4023">
  <defs>
    <style>
      .cls-1 {
        fill: #ffa400;
      }

      .cls-2 {
        fill: #fff;
      }
    </style>
  </defs>
  <path class="cls-1" d="M51.0742,69.7266v35.1562h-11.4258v31.7383H0V51.8555C0,35.4492,4.4756,22.7051,13.4277,13.623,22.3784,4.541,34.9609,0,51.1719,0c15.625,0,27.1807,4.1182,34.668,12.3535,7.4858,8.2368,11.2305,20.9473,11.2305,38.1348v86.1328h-39.6484V53.125c0-5.208-.6196-8.8213-1.8555-10.8398-1.2373-2.0171-3.4517-3.0273-6.6406-3.0273-6.186,0-9.2773,4.6235-9.2773,13.8672v16.6016h11.4258Z"/>
  <path class="cls-2" d="M155.3828,41.6016v95.0195h-39.6484V3.3203h51.6602c22.6562,0,40.396,5.1436,53.2227,15.4297,15.2344,12.3047,22.8516,29.0039,22.8516,50.0977,0,20.1826-6.5107,36.6543-19.5312,49.4141-13.022,12.7607-29.7852,19.1406-50.293,19.1406-2.4092,0-6.3477-.1309-11.8164-.3906v-39.1602h6.3477c23.1108,0,34.668-9.668,34.668-29.0039,0-18.1641-11.3618-27.2461-34.082-27.2461h-13.3789Z"/>
</svg>