<?xml version="1.0" encoding="UTF-8"?>
<svg id="Vrstva_1" xmlns="http://www.w3.org/2000/svg" viewBox="0 0 752.7109 289.2578">
  <defs>
    <style>
      .cls-1 {
        fill: #ffa400;
      }

      .cls-2 {
        fill: #fff;
      }
    </style>
  </defs>
  <path class="cls-1" d="M51.0742,69.7266v35.1562h-11.4258v31.7383H0V51.8555C0,35.4492,4.4756,22.7051,13.4277,13.623,22.3784,4.541,34.9609,0,51.1719,0c15.625,0,27.1807,4.1182,34.668,12.3535,7.4858,8.2368,11.2305,20.9473,11.2305,38.1348v86.1328h-39.6484V53.125c0-5.208-.6196-8.8213-1.8555-10.8398-1.2373-2.0171-3.4517-3.0273-6.6406-3.0273-6.186,0-9.2773,4.6235-9.2773,13.8672v16.6016h11.4258Z"/>
  <path class="cls-1" d="M213.7461,3.3203v86.4258c0,15.2344-4.541,27.4092-13.623,36.5234-9.082,9.1157-21.1763,13.6719-36.2793,13.6719-15.0391,0-26.5474-4.4268-34.5215-13.2812-7.9756-8.853-11.9629-21.582-11.9629-38.1836V3.3203h39.6484v85.0586c0,8.1392,2.896,12.207,8.6914,12.207,5.5986,0,8.3984-4.0679,8.3984-12.207V3.3203h39.6484Z"/>
  <path class="cls-1" d="M295.875,41.6016v95.0195h-39.6484V41.6016h-30.3711V3.3203h100.293v38.2812h-30.2734Z"/>
  <path class="cls-1" d="M403.9805,0c18.8799,0,35.0742,6.8696,48.584,20.6055,13.5088,13.7373,20.2637,30.1758,20.2637,49.3164,0,19.4673-6.8037,36.0029-20.4102,49.6094-13.6074,13.6079-30.1436,20.4102-49.6094,20.4102-19.3359,0-35.8398-6.8359-49.5117-20.5078s-20.5078-30.1758-20.5078-49.5117c0-19.5312,6.8848-36.0674,20.6543-49.6094,13.7695-13.5405,30.6152-20.3125,50.5371-20.3125ZM402.8086,39.2578c-8.1387,0-15.0723,2.9951-20.8008,8.9844-5.7295,5.9907-8.5938,13.2173-8.5938,21.6797s2.8809,15.6904,8.6426,21.6797c5.7617,5.9907,12.6787,8.9844,20.752,8.9844,8.2031,0,15.1523-2.9785,20.8496-8.9355,5.6963-5.957,8.5449-13.1987,8.5449-21.7285s-2.8486-15.7715-8.5449-21.7285c-5.6973-5.957-12.6465-8.9355-20.8496-8.9355Z"/>
  <path class="cls-2" d="M141.3828,191.6016v95.0195h-39.6484v-133.3008h51.6602c22.6562,0,40.396,5.1436,53.2227,15.4297,15.2344,12.3047,22.8516,29.0039,22.8516,50.0977,0,20.1826-6.5107,36.6543-19.5312,49.4141-13.022,12.7607-29.7852,19.1406-50.293,19.1406-2.4092,0-6.3477-.1309-11.8164-.3906v-39.1602h6.3477c23.1108,0,34.668-9.668,34.668-29.0039,0-18.1641-11.3618-27.2461-34.082-27.2461h-13.3789Z"/>
  <path class="cls-2" d="M287.7695,153.3203v133.3008h-39.6484v-133.3008h39.6484Z"/>
  <path class="cls-2" d="M311.6953,153.3203h39.6484v79.1992c0,6.1855.9917,10.3027,2.9785,12.3535,1.9854,2.0508,5.9082,3.0762,11.7676,3.0762h2.0508v38.6719h-10.5469c-14.4531,0-25.7173-4.2148-33.7891-12.6465-8.0732-8.4307-12.1094-20.1328-12.1094-35.1074v-85.5469Z"/>
  <path class="cls-2" d="M475.4648,153.3203l-37.6953,59.2773v74.0234h-39.6484v-74.0234l-37.9883-59.2773h40.2344l17.1875,27.4414,18.457-27.4414h39.4531Z"/>
  <path class="cls-2" d="M506.4219,242.8711c6.3799,0,11.8652,2.3115,16.4551,6.9336,4.5898,4.623,6.8848,10.124,6.8848,16.5039s-2.2793,11.8008-6.8359,16.2598c-4.5576,4.459-10.0586,6.6895-16.5039,6.6895-6.7061,0-12.2236-2.165-16.5527-6.4941-4.3301-4.3291-6.4941-9.8467-6.4941-16.5527,0-6.5098,2.2461-12.0273,6.7383-16.5527,4.4922-4.5244,9.9277-6.7871,16.3086-6.7871Z"/>
  <path class="cls-2" d="M614.8203,241.7969l36.2305-1.3672c-1.042,14.0625-6.2832,25.6191-15.7227,34.668-9.4404,9.0498-20.9316,13.5742-34.4727,13.5742-14.3232,0-26.416-4.9805-36.2793-14.9414s-14.7949-22.168-14.7949-36.6211c0-13.7363,4.9805-25.4883,14.9414-35.2539s21.9072-14.6484,35.8398-14.6484c12.1738,0,22.916,3.8418,32.2266,11.5234,9.3096,7.6826,15.1035,17.4805,17.3828,29.3945l-37.0117,1.3672c-3.1904-4.166-7.2266-6.25-12.1094-6.25-4.167,0-7.585,1.3672-10.2539,4.1016-2.6699,2.7344-4.0039,6.1855-4.0039,10.3516,0,4.2324,1.416,7.7803,4.248,10.6445,2.832,2.8652,6.3633,4.2969,10.5957,4.2969,6.1846,0,10.5791-3.6133,13.1836-10.8398Z"/>
  <path class="cls-2" d="M748.2188,189.2578l-29.8828,59.082h34.375v38.2812h-93.8477l29.6875-59.2773h-30.8594v-38.0859h90.5273Z"/>
</svg>